<svg width="84" height="87" viewBox="0 0 84 87" fill="white" stroke="black" stroke-width="1" xmlns="http://www.w3.org/2000/svg">
<path fill-rule="evenodd" clip-rule="evenodd" d="M21.7048 2.72686C18.4048 4.33786 14.4918 6.94986 13.0088 8.53086C9.39578 12.3839 6.35078 19.5179 5.99478 24.9599L5.70478 29.4069L11.7048 29.2019C52.9058 27.7939 56.9918 27.7999 66.6278 29.2829C72.0858 30.1239 76.9758 30.5479 77.4958 30.2269C78.8548 29.3869 77.5818 21.6549 75.1578 16.0199C74.0158 13.3649 71.4218 9.57486 69.3928 7.59786C63.2088 1.57186 59.6078 0.568856 42.7048 0.159856C27.8148 -0.200144 27.6608 -0.181143 21.7048 2.72686ZM37.6888 33.5339C36.5798 33.7819 32.9798 36.0299 29.6888 38.5299C26.3978 41.0299 21.3428 44.8519 18.4548 47.0229C15.5668 49.1939 13.2048 51.6449 13.2048 52.4709C13.2048 57.7019 19.6768 65.4139 23.0188 64.1649C23.9458 63.8179 27.4628 61.4299 30.8338 58.8589C34.2038 56.2879 38.1378 53.8899 39.5748 53.5289C42.8748 52.7009 48.0078 54.8069 53.4948 59.2399C60.1748 64.6389 61.9368 65.3129 64.6728 63.5199C67.2518 61.8299 70.7608 53.7989 69.9008 51.5569C69.4008 50.2529 58.8858 41.7709 50.7078 36.0719C47.4098 33.7739 41.6448 32.6499 37.6888 33.5339ZM6.49078 38.1569C4.80178 40.3579 1.23778 50.2479 0.305781 55.3199C-1.81322 66.8459 7.41878 83.2719 17.5488 85.9999C20.9008 86.9019 22.7438 86.6629 30.0908 84.3699C40.2458 81.2009 44.0518 81.0879 50.8108 83.7519C63.6648 88.8179 70.4848 86.9059 77.8298 76.1719C84.8868 65.8599 85.3308 58.7219 79.8368 43.9069C77.1378 36.6269 74.8598 35.4859 72.2628 40.1119C70.8238 42.6769 70.8858 42.9649 73.4748 45.6669C74.9808 47.2389 76.2048 49.6529 76.2048 51.0519C76.2048 54.5649 70.8798 64.8869 67.2948 68.3209L64.3258 71.1659L56.5468 66.5359C49.2718 62.2069 48.3128 61.9069 41.7368 61.9079C35.2838 61.9079 34.1698 62.2369 28.2048 65.9069C24.6298 68.1059 20.7328 69.9059 19.5438 69.9059C16.7918 69.9069 12.5638 64.9259 9.54778 58.1279C6.57978 51.4409 6.60578 49.4079 9.70478 45.7249C12.6068 42.2759 12.8138 40.6589 10.6338 38.4779C8.73578 36.5799 7.75878 36.5049 6.49078 38.1569Z"/>
</svg>
