<svg width="384" height="360" viewBox="0 0 384 360" fill="none" xmlns="http://www.w3.org/2000/svg">
<path d="M377.943 347.891H363.068V175.421C363.068 175.214 363.056 175.007 363.033 174.804C361.724 163.003 352.611 140.683 327.521 140.683H276.697V84.7649C276.697 81.6711 274.189 79.1672 271.095 79.1672C268.001 79.1672 265.493 81.6711 265.493 84.7649V140.683H198.063V84.7649C198.063 81.6711 195.556 79.1672 192.462 79.1672C189.368 79.1672 186.864 81.6711 186.864 84.7649V140.683H119.665V84.7649C119.665 81.6711 117.157 79.1672 114.064 79.1672C110.974 79.1672 108.466 81.6711 108.466 84.7649V140.683H57.4069C32.3129 140.683 23.2039 162.999 21.8909 174.804C21.8674 175.007 21.8557 175.214 21.8557 175.421V347.891H5.5977C2.5079 347.891 0 350.399 0 353.493C0 356.587 2.5078 359.09 5.5977 359.09H377.938C381.028 359.09 383.535 356.587 383.535 353.493C383.535 350.399 381.028 347.891 377.938 347.891H377.943ZM57.4028 151.881H327.513C347.837 151.881 351.474 173.029 351.861 175.776V221.26C350.857 225.651 348.419 229.58 344.931 232.432C341.443 235.284 337.107 236.893 332.603 237.002C325.834 237.002 320.712 228.577 315.291 219.65C308.479 208.435 300.756 195.72 286.467 195.72C272.389 195.72 264.858 208.118 258.209 219.048C251.619 229.892 246.756 237.001 239.521 237.001C232.56 237.001 228.205 230.544 221.849 219.907C215.076 208.571 207.404 195.719 191.763 195.719C176.013 195.719 168.486 209.211 162.435 220.051C156.548 230.602 152.478 237.004 145.623 237.004C137.865 237.004 132.365 228.376 126.545 219.234C119.522 208.211 111.565 195.718 97.0571 195.718C82.1121 195.718 74.8851 208.679 68.5061 220.109C62.6428 230.621 58.6428 237.004 52.5411 237.004V237.001C48.6622 237.403 44.7481 236.657 41.2831 234.864C37.8222 233.067 34.9589 230.297 33.0487 226.895V175.762C33.4276 172.953 36.9393 151.879 57.4007 151.879L57.4028 151.881ZM33.0508 242.951C38.8906 246.58 45.6718 248.404 52.5468 248.205C65.6678 248.205 72.3748 236.178 78.2928 225.568C84.578 214.302 89.2808 206.92 97.0628 206.92C105.426 206.92 111.098 215.822 117.102 225.252C123.957 236.01 131.727 248.205 145.625 248.205C159.551 248.205 166.281 236.146 172.219 225.51C178.672 213.944 183.207 206.92 191.766 206.92C200.426 206.92 205.278 213.998 212.235 225.65C218.547 236.22 225.704 248.205 239.52 248.205C253.598 248.205 261.133 235.807 267.782 224.869C274.372 214.029 279.235 206.92 286.47 206.92C294.458 206.92 299.927 215.928 305.724 225.463C312.2 236.123 319.536 248.201 332.607 248.201V248.205C339.654 248.318 346.502 245.861 351.865 241.287V347.897H33.0548L33.0508 242.951Z" fill="black"/>
<path d="M109.383 2.3711C106.41 6.9219 91.9338 30.2661 98.8598 43.0591C100.395 45.6568 102.645 47.7583 105.344 49.1138C108.04 50.4654 111.071 51.0161 114.071 50.6958C117.075 51.0161 120.102 50.4653 122.801 49.1138C125.501 47.7583 127.751 45.6568 129.286 43.0591C136.208 30.2661 121.735 6.9221 118.763 2.3711C117.665 0.882801 115.923 0 114.071 0C112.224 0 110.482 0.882811 109.384 2.3711H109.383ZM119.438 37.7261C118.649 39.187 116.086 39.4917 114.075 39.4917C112.063 39.4917 109.5 39.187 108.711 37.7261C106.75 34.1128 109.91 24.9061 114.078 16.6751C118.246 24.9017 121.403 34.0971 119.438 37.7261V37.7261Z" fill="black"/>
<path d="M187.773 2.3711C184.8 6.9219 170.328 30.2731 177.25 43.0591C178.785 45.6568 181.035 47.7583 183.734 49.1138C186.43 50.4654 189.461 51.0161 192.461 50.6958C195.461 51.0161 198.492 50.4653 201.191 49.1138C203.887 47.7583 206.141 45.6568 207.676 43.0591C214.598 30.2661 200.125 6.9221 197.153 2.3711C196.055 0.882801 194.313 0 192.461 0C190.61 0 188.872 0.882811 187.774 2.3711H187.773ZM197.828 37.7261C197.039 39.187 194.476 39.4917 192.465 39.4917C190.453 39.4917 187.894 39.187 187.101 37.7261C185.136 34.1128 188.3 24.9061 192.468 16.6751C196.633 24.9017 199.793 34.0971 197.824 37.7261H197.828Z" fill="black"/>
<path d="M266.413 2.3711C263.44 6.9219 248.964 30.2661 255.89 43.0591H255.886C259.468 47.8638 265.109 50.6958 271.101 50.6958C277.093 50.6958 282.734 47.8638 286.316 43.0591C293.238 30.2661 278.765 6.9221 275.793 2.3711C274.695 0.882801 272.953 0 271.102 0C269.25 0 267.508 0.882811 266.414 2.3711H266.413ZM276.464 37.7261C275.675 39.187 273.112 39.4917 271.101 39.4917C269.089 39.4917 266.526 39.187 265.737 37.7261C263.776 34.1128 266.936 24.9061 271.104 16.6751C275.272 24.9017 278.433 34.0971 276.464 37.7261V37.7261Z" fill="black"/>
</svg>
