<svg width="75" height="65" viewBox="0 0 75 65" fill="none" xmlns="http://www.w3.org/2000/svg">
<path d="M4 32.5C4 15.6553 17.6553 2 34.5 2H72V63H34.5C17.6553 63 4 49.3447 4 32.5Z" fill="#272727" fill-opacity="0.5"/>
<path d="M0.5 32.5C0.5 14.8269 14.8269 0.5 32.5 0.5H74.5V64.5H32.5C14.8269 64.5 0.5 50.1731 0.5 32.5Z" stroke="white"/>
<path d="M40.3792 46.216C37.8832 46.216 35.6272 45.664 33.6112 44.56C31.6192 43.456 30.0472 41.932 28.8952 39.988C27.7672 38.02 27.2032 35.824 27.2032 33.4C27.2032 30.976 27.7672 28.792 28.8952 26.848C30.0472 24.88 31.6312 23.344 33.6472 22.24C35.6632 21.136 37.9192 20.584 40.4152 20.584C42.2872 20.584 44.0152 20.896 45.5992 21.52C47.1832 22.144 48.5272 23.056 49.6312 24.256L47.9392 25.948C45.9712 23.956 43.4872 22.96 40.4872 22.96C38.4952 22.96 36.6832 23.416 35.0512 24.328C33.4192 25.24 32.1352 26.488 31.1992 28.072C30.2872 29.656 29.8312 31.432 29.8312 33.4C29.8312 35.368 30.2872 37.144 31.1992 38.728C32.1352 40.312 33.4192 41.56 35.0512 42.472C36.6832 43.384 38.4952 43.84 40.4872 43.84C43.5112 43.84 45.9952 42.832 47.9392 40.816L49.6312 42.508C48.5272 43.708 47.1712 44.632 45.5632 45.28C43.9792 45.904 42.2512 46.216 40.3792 46.216Z" fill="white"/>
<path d="M54.4789 53.58H56.3089V54.17H55.1889V62.35H56.3089V62.94H54.4789V53.58ZM62.4425 61L60.8425 58.75C60.6625 58.77 60.4758 58.78 60.2825 58.78H58.4025V61H57.6625V54H60.2825C61.1758 54 61.8758 54.2133 62.3825 54.64C62.8891 55.0667 63.1425 55.6533 63.1425 56.4C63.1425 56.9467 63.0025 57.41 62.7225 57.79C62.4491 58.1633 62.0558 58.4333 61.5425 58.6L63.2525 61H62.4425ZM60.2625 58.15C60.9558 58.15 61.4858 57.9967 61.8525 57.69C62.2191 57.3833 62.4025 56.9533 62.4025 56.4C62.4025 55.8333 62.2191 55.4 61.8525 55.1C61.4858 54.7933 60.9558 54.64 60.2625 54.64H58.4025V58.15H60.2625ZM69.479 55.74V61H68.799V60.04C68.6124 60.36 68.3557 60.61 68.029 60.79C67.7024 60.9633 67.329 61.05 66.909 61.05C66.2224 61.05 65.679 60.86 65.279 60.48C64.8857 60.0933 64.689 59.53 64.689 58.79V55.74H65.399V58.72C65.399 59.2733 65.5357 59.6933 65.809 59.98C66.0824 60.2667 66.4724 60.41 66.979 60.41C67.5324 60.41 67.969 60.2433 68.289 59.91C68.609 59.57 68.769 59.1 68.769 58.5V55.74H69.479ZM70.6875 62.94V62.35H71.8075V54.17H70.6875V53.58H72.5175V62.94H70.6875Z" fill="white"/>
</svg>
