<svg width="75" height="65" viewBox="0 0 75 65" fill="none" xmlns="http://www.w3.org/2000/svg">
<path d="M74.5 32.5C74.5 50.1731 60.1731 64.5 42.5 64.5L0.5 64.5L0.5 0.5L42.5 0.5C60.1731 0.5 74.5 14.8269 74.5 32.5Z" stroke="white"/>
<path d="M72 32.5C72 49.3447 58.3447 63 41.5 63H4L4 2H41.5C58.3447 2 72 15.6553 72 32.5Z" fill="#272727" fill-opacity="0.5"/>
<path d="M50.4876 20.8L39.3276 46H36.6996L25.5396 20.8H28.4196L38.0676 42.688L47.7876 20.8H50.4876Z" fill="white"/>
<path d="M2.22789 2.58H4.05789V3.17H2.93789V11.35H4.05789V11.94H2.22789V2.58ZM10.3615 9.36V10H5.41148V3H10.2115V3.64H6.15148V6.13H9.77148V6.76H6.15148V9.36H10.3615ZM14.6309 4.7C15.2909 4.7 15.8143 4.89333 16.2009 5.28C16.5943 5.66 16.7909 6.21667 16.7909 6.95V10H16.0809V7.02C16.0809 6.47333 15.9443 6.05667 15.6709 5.77C15.3976 5.48333 15.0076 5.34 14.5009 5.34C13.9343 5.34 13.4843 5.51 13.1509 5.85C12.8243 6.18333 12.6609 6.64667 12.6609 7.24V10H11.9509V4.74H12.6309V5.71C12.8243 5.39 13.0909 5.14333 13.4309 4.97C13.7776 4.79 14.1776 4.7 14.6309 4.7ZM17.9385 11.94V11.35H19.0585V3.17H17.9385V2.58H19.7685V11.94H17.9385Z" fill="white"/>
</svg>
