<svg width="65" height="65" viewBox="0 0 65 65" fill="none" xmlns="http://www.w3.org/2000/svg">
<circle cx="32.5" cy="32.5" r="29.5" fill="#272727" fill-opacity="0.5"/>
<circle cx="32.5" cy="32.5" r="32" stroke="#EBEBEB"/>
<path d="M26.5239 53.4669C26.5239 46.546 26.5239 39.6838 26.5239 32.7511C24.9963 32.7511 23.5158 32.7511 22 32.7511C22 30.401 22 28.1215 22 25.7714C22.1998 25.7596 22.3995 25.7361 22.611 25.7361C23.7038 25.7361 24.8083 25.7126 25.9011 25.7479C26.3829 25.7596 26.5474 25.6304 26.5356 25.1369C26.5121 23.3508 26.5121 21.5765 26.5239 19.7905C26.5356 17.7812 27.0996 15.9599 28.5332 14.5028C29.9197 13.0928 31.694 12.329 33.6211 12.2115C36.7232 12.0353 39.837 12.0588 42.9508 12C42.9861 12 43.0213 12.0353 43.0918 12.0705C43.0918 14.4323 43.0918 16.8059 43.0918 19.2382C42.8686 19.25 42.6571 19.2617 42.4573 19.2617C41.0473 19.2617 39.6372 19.2617 38.2272 19.2617C36.8054 19.2735 35.9711 20.1195 35.9711 21.5178C35.9711 22.8456 35.9711 24.1851 35.9829 25.5129C35.9829 25.5481 36.0064 25.5834 36.0416 25.7126C38.3682 25.7126 40.7183 25.7126 43.1858 25.7126C42.8803 28.098 42.5983 30.3775 42.2928 32.7393C40.166 32.7393 38.0862 32.7393 35.9476 32.7393C35.9476 39.6955 35.9476 46.5812 35.9476 53.4904C32.7868 53.4669 29.7082 53.4669 26.5239 53.4669Z" fill="#EBEBEB"/>
</svg>
