<svg width="65" height="65" viewBox="0 0 65 65" fill="none" xmlns="http://www.w3.org/2000/svg">
<circle cx="32.42" cy="32.42" r="30.42" fill="#272727" fill-opacity="0.5"/>
<path d="M32.99 50C28.0727 50 27.4931 49.974 25.5741 49.8902C24.0777 49.8411 22.6006 49.5373 21.2066 48.992C18.7945 48.0547 16.8872 46.1494 15.9495 43.7405C15.4244 42.3434 15.1412 40.8672 15.1119 39.3752C15 37.4631 15 36.8363 15 31.9641C15 27.0399 15.026 26.4651 15.1119 24.5589C15.1418 23.0689 15.425 21.5948 15.9495 20.1996C16.8862 17.7875 18.7966 15.8806 21.2125 14.9461C22.6091 14.4196 24.0856 14.136 25.5781 14.1078C27.4871 14 28.1147 14 32.99 14C37.9473 14 38.5169 14.0259 40.4059 14.1078C41.9022 14.1363 43.3827 14.4198 44.7835 14.9461C47.1987 15.8816 49.1087 17.7882 50.0465 20.1996C50.5805 21.6152 50.8652 23.1123 50.8881 24.6247C51 26.5369 51 27.1617 51 32.0319C51 36.9022 50.972 37.5409 50.8881 39.4311C50.8583 40.9246 50.5744 42.402 50.0485 43.8004C49.1084 46.211 47.1982 48.1169 44.7835 49.0539C43.3847 49.5772 41.9073 49.86 40.4139 49.8902C38.5049 50 37.8793 50 32.99 50ZM32.922 17.1597C28.0328 17.1597 27.525 17.1836 25.6161 17.2695C24.4767 17.2845 23.3483 17.4945 22.28 17.8902C20.7023 18.493 19.454 19.7345 18.8439 21.3074C18.4445 22.3858 18.2342 23.5249 18.2222 24.6747C18.1163 26.6088 18.1163 27.1158 18.1163 31.9641C18.1163 36.7545 18.1343 37.3353 18.2222 39.2575C18.2401 40.3956 18.4503 41.5226 18.8439 42.5908C19.4549 44.1626 20.703 45.4032 22.28 46.006C23.3476 46.4043 24.4764 46.6144 25.6161 46.6267C27.551 46.7385 28.0607 46.7385 32.922 46.7385C37.8253 46.7385 38.333 46.7146 40.226 46.6267C41.3662 46.6129 42.4954 46.4029 43.5641 46.006C45.1322 45.398 46.3724 44.1603 46.9822 42.5948C47.3808 41.5155 47.5911 40.3759 47.6039 39.2255H47.6259C47.7118 37.3174 47.7118 36.8084 47.7118 31.9321C47.7118 27.0559 47.6898 26.5429 47.6039 24.6367C47.586 23.4999 47.3758 22.3743 46.9822 21.3074C46.3738 19.7397 45.1334 18.4996 43.5641 17.8902C42.4956 17.4925 41.3662 17.2825 40.226 17.2695C38.2931 17.1597 37.7873 17.1597 32.922 17.1597ZM32.99 41.1836C29.2521 41.1861 25.8808 38.9396 24.4485 35.4919C23.0162 32.0443 23.8049 28.0745 26.4469 25.4341C29.0889 22.7936 33.0637 22.0025 36.5176 23.4298C39.9714 24.8571 42.2241 28.2215 42.2249 31.9541C42.2194 37.046 38.0893 41.1737 32.99 41.1836ZM32.99 25.9621C29.6781 25.9621 26.9933 28.643 26.9933 31.9501C26.9933 35.2572 29.6781 37.9381 32.99 37.9381C36.3019 37.9381 38.9867 35.2572 38.9867 31.9501C38.979 28.6462 36.2987 25.9698 32.99 25.9621ZM42.5847 24.5389C41.3962 24.5345 40.4357 23.57 40.4379 22.3832C40.4401 21.1965 41.4042 20.2355 42.5927 20.2355C43.7812 20.2355 44.7453 21.1964 44.7475 22.3832C44.748 22.9558 44.5202 23.505 44.1143 23.9095C43.7085 24.314 43.1581 24.5405 42.5847 24.5389Z" fill="#EBEBEB"/>
<circle cx="32.5" cy="32.5" r="32" stroke="#EBEBEB"/>
</svg>
